<mxfile host="app.diagrams.net" modified="2023-05-18T10:21:59.734Z" agent="Mozilla/5.0 (Windows NT 10.0; Win64; x64) AppleWebKit/537.36 (KHTML, like Gecko) Chrome/93.0.4577.63 Safari/537.36 OPR/79.0.4143.22" etag="Cedsof_vW3r36BgccoyB" version="21.3.2" type="device">
  <diagram name="Page-1" id="2p3OMXB9fcw7YmH-TXFI">
    <mxGraphModel dx="1690" dy="1554" grid="1" gridSize="10" guides="1" tooltips="1" connect="1" arrows="1" fold="1" page="1" pageScale="1" pageWidth="850" pageHeight="1100" math="0" shadow="0">
      <root>
        <mxCell id="0" />
        <mxCell id="1" parent="0" />
        <mxCell id="irvj4OvExT9gKd955zVb-1" value="" style="edgeStyle=none;curved=1;rounded=0;orthogonalLoop=1;jettySize=auto;html=1;fontSize=12;startSize=8;endSize=8;" edge="1" parent="1" source="irvj4OvExT9gKd955zVb-2" target="irvj4OvExT9gKd955zVb-7">
          <mxGeometry relative="1" as="geometry" />
        </mxCell>
        <mxCell id="irvj4OvExT9gKd955zVb-2" value="&lt;font face=&quot;calibri&quot; style=&quot;font-size: 11px;&quot;&gt;start&lt;/font&gt;" style="strokeWidth=2;html=1;shape=mxgraph.flowchart.terminator;whiteSpace=wrap;fontSize=16;fillColor=#dae8fc;strokeColor=#6c8ebf;" vertex="1" parent="1">
          <mxGeometry x="-265.5" y="-46" width="141" height="60" as="geometry" />
        </mxCell>
        <mxCell id="irvj4OvExT9gKd955zVb-3" value="" style="edgeStyle=none;curved=1;rounded=0;orthogonalLoop=1;jettySize=auto;html=1;fontSize=12;startSize=8;endSize=8;" edge="1" parent="1" source="irvj4OvExT9gKd955zVb-4" target="irvj4OvExT9gKd955zVb-9">
          <mxGeometry relative="1" as="geometry" />
        </mxCell>
        <mxCell id="irvj4OvExT9gKd955zVb-4" value="&lt;font style=&quot;font-size: 11px;&quot; face=&quot;calribri&quot;&gt;location of row and column =0&lt;/font&gt;" style="rounded=0;whiteSpace=wrap;html=1;fontSize=16;fillColor=#d5e8d4;strokeColor=#6c8ebf;" vertex="1" parent="1">
          <mxGeometry x="-256.5" y="57" width="120" height="60" as="geometry" />
        </mxCell>
        <mxCell id="irvj4OvExT9gKd955zVb-5" value="" style="edgeStyle=none;curved=1;rounded=0;orthogonalLoop=1;jettySize=auto;html=1;fontSize=12;startSize=8;endSize=8;" edge="1" parent="1" source="irvj4OvExT9gKd955zVb-7" target="irvj4OvExT9gKd955zVb-12">
          <mxGeometry relative="1" as="geometry" />
        </mxCell>
        <mxCell id="irvj4OvExT9gKd955zVb-6" style="edgeStyle=none;curved=1;rounded=0;orthogonalLoop=1;jettySize=auto;html=1;fontSize=12;startSize=8;endSize=8;entryX=1;entryY=0.25;entryDx=0;entryDy=0;" edge="1" parent="1" source="irvj4OvExT9gKd955zVb-7" target="irvj4OvExT9gKd955zVb-4">
          <mxGeometry relative="1" as="geometry">
            <mxPoint x="-19" y="189" as="targetPoint" />
            <Array as="points">
              <mxPoint x="27" y="184" />
              <mxPoint x="-19" y="68" />
            </Array>
          </mxGeometry>
        </mxCell>
        <mxCell id="irvj4OvExT9gKd955zVb-7" value="&lt;font style=&quot;font-size: 11px;&quot; face=&quot;calribri&quot;&gt;column &amp;lt;2&lt;/font&gt;" style="rhombus;whiteSpace=wrap;html=1;fontSize=16;fillColor=#fff2cc;strokeColor=#d6b656;" vertex="1" parent="1">
          <mxGeometry x="-244.5" y="147" width="100.5" height="84" as="geometry" />
        </mxCell>
        <mxCell id="irvj4OvExT9gKd955zVb-8" value="" style="edgeStyle=none;curved=1;rounded=0;orthogonalLoop=1;jettySize=auto;html=1;fontSize=12;startSize=8;endSize=8;" edge="1" parent="1" source="irvj4OvExT9gKd955zVb-9" target="irvj4OvExT9gKd955zVb-14">
          <mxGeometry relative="1" as="geometry" />
        </mxCell>
        <mxCell id="irvj4OvExT9gKd955zVb-9" value="&lt;font face=&quot;calribri&quot; style=&quot;font-size: 11px;&quot;&gt;set column to LOW&lt;/font&gt;" style="rounded=0;whiteSpace=wrap;html=1;fontSize=16;fillColor=#d5e8d4;strokeColor=#6c8ebf;" vertex="1" parent="1">
          <mxGeometry x="-249" y="261" width="120" height="60" as="geometry" />
        </mxCell>
        <mxCell id="irvj4OvExT9gKd955zVb-10" value="" style="edgeStyle=none;curved=1;rounded=0;orthogonalLoop=1;jettySize=auto;html=1;fontSize=12;startSize=8;endSize=8;" edge="1" parent="1" source="irvj4OvExT9gKd955zVb-12" target="irvj4OvExT9gKd955zVb-17">
          <mxGeometry relative="1" as="geometry" />
        </mxCell>
        <mxCell id="irvj4OvExT9gKd955zVb-11" style="edgeStyle=none;curved=1;rounded=0;orthogonalLoop=1;jettySize=auto;html=1;fontSize=12;startSize=8;endSize=8;" edge="1" parent="1" source="irvj4OvExT9gKd955zVb-12">
          <mxGeometry relative="1" as="geometry">
            <mxPoint x="-132" y="74" as="targetPoint" />
            <Array as="points">
              <mxPoint x="124" y="378" />
              <mxPoint x="40" y="64" />
            </Array>
          </mxGeometry>
        </mxCell>
        <mxCell id="irvj4OvExT9gKd955zVb-12" value="&lt;font face=&quot;calribri&quot; style=&quot;font-size: 11px;&quot;&gt;row &amp;lt;1&lt;/font&gt;" style="rhombus;whiteSpace=wrap;html=1;fontSize=16;fillColor=#fff2cc;strokeColor=#d6b656;" vertex="1" parent="1">
          <mxGeometry x="-237" y="350" width="100.5" height="84" as="geometry" />
        </mxCell>
        <mxCell id="irvj4OvExT9gKd955zVb-13" value="" style="edgeStyle=none;curved=1;rounded=0;orthogonalLoop=1;jettySize=auto;html=1;fontSize=12;startSize=8;endSize=8;entryX=0.5;entryY=0;entryDx=0;entryDy=0;" edge="1" parent="1" source="irvj4OvExT9gKd955zVb-14" target="irvj4OvExT9gKd955zVb-17">
          <mxGeometry relative="1" as="geometry" />
        </mxCell>
        <mxCell id="irvj4OvExT9gKd955zVb-14" value="&lt;font style=&quot;font-size: 11px;&quot; face=&quot;calribri&quot;&gt;read row pin value&lt;/font&gt;" style="rounded=0;whiteSpace=wrap;html=1;fontSize=16;fillColor=#d5e8d4;strokeColor=#6c8ebf;" vertex="1" parent="1">
          <mxGeometry x="-246.75" y="465" width="120" height="60" as="geometry" />
        </mxCell>
        <mxCell id="irvj4OvExT9gKd955zVb-15" value="" style="edgeStyle=none;curved=1;rounded=0;orthogonalLoop=1;jettySize=auto;html=1;fontSize=12;startSize=8;endSize=8;" edge="1" parent="1" source="irvj4OvExT9gKd955zVb-17">
          <mxGeometry relative="1" as="geometry">
            <mxPoint x="-51" y="634" as="targetPoint" />
            <Array as="points">
              <mxPoint x="-49" y="572" />
            </Array>
          </mxGeometry>
        </mxCell>
        <mxCell id="irvj4OvExT9gKd955zVb-16" value="" style="edgeStyle=none;curved=1;rounded=0;orthogonalLoop=1;jettySize=auto;html=1;fontSize=12;startSize=8;endSize=8;" edge="1" parent="1" source="irvj4OvExT9gKd955zVb-17">
          <mxGeometry relative="1" as="geometry">
            <mxPoint x="-297" y="642" as="targetPoint" />
            <Array as="points">
              <mxPoint x="-270" y="579" />
              <mxPoint x="-300" y="601" />
            </Array>
          </mxGeometry>
        </mxCell>
        <mxCell id="irvj4OvExT9gKd955zVb-17" value="&lt;font style=&quot;font-size: 11px;&quot;&gt;value is LOW&lt;/font&gt;" style="rhombus;whiteSpace=wrap;html=1;fontSize=16;fillColor=#fff2cc;strokeColor=#d6b656;" vertex="1" parent="1">
          <mxGeometry x="-226.75" y="538" width="80" height="80" as="geometry" />
        </mxCell>
        <mxCell id="irvj4OvExT9gKd955zVb-18" value="" style="edgeStyle=none;curved=1;rounded=0;orthogonalLoop=1;jettySize=auto;html=1;fontSize=12;startSize=8;endSize=8;" edge="1" parent="1" source="irvj4OvExT9gKd955zVb-19" target="irvj4OvExT9gKd955zVb-24">
          <mxGeometry relative="1" as="geometry">
            <Array as="points">
              <mxPoint x="-17" y="784" />
            </Array>
          </mxGeometry>
        </mxCell>
        <mxCell id="irvj4OvExT9gKd955zVb-19" value="&lt;font style=&quot;font-size: 11px;&quot; face=&quot;calribri&quot;&gt;Delay 10 ms&lt;/font&gt;" style="rounded=0;whiteSpace=wrap;html=1;fontSize=16;fillColor=#d5e8d4;strokeColor=#6c8ebf;" vertex="1" parent="1">
          <mxGeometry x="-118" y="636" width="120" height="60" as="geometry" />
        </mxCell>
        <mxCell id="irvj4OvExT9gKd955zVb-20" value="" style="edgeStyle=none;curved=1;rounded=0;orthogonalLoop=1;jettySize=auto;html=1;fontSize=12;startSize=8;endSize=8;" edge="1" parent="1" source="irvj4OvExT9gKd955zVb-21" target="irvj4OvExT9gKd955zVb-31">
          <mxGeometry relative="1" as="geometry" />
        </mxCell>
        <mxCell id="irvj4OvExT9gKd955zVb-21" value="&lt;font style=&quot;font-size: 11px;&quot; face=&quot;calribri&quot;&gt;set column value to HIGH&lt;/font&gt;" style="rounded=0;whiteSpace=wrap;html=1;fontSize=16;fillColor=#d5e8d4;strokeColor=#6c8ebf;" vertex="1" parent="1">
          <mxGeometry x="-244.5" y="769" width="120" height="60" as="geometry" />
        </mxCell>
        <mxCell id="irvj4OvExT9gKd955zVb-22" value="" style="edgeStyle=none;curved=1;rounded=0;orthogonalLoop=1;jettySize=auto;html=1;fontSize=12;startSize=8;endSize=8;" edge="1" parent="1" source="irvj4OvExT9gKd955zVb-23" target="irvj4OvExT9gKd955zVb-21">
          <mxGeometry relative="1" as="geometry">
            <Array as="points">
              <mxPoint x="-327" y="763" />
            </Array>
          </mxGeometry>
        </mxCell>
        <mxCell id="irvj4OvExT9gKd955zVb-23" value="&lt;font style=&quot;font-size: 11px;&quot;&gt;increment row counter&lt;/font&gt;" style="rounded=0;whiteSpace=wrap;html=1;fontSize=16;fillColor=#d5e8d4;strokeColor=#6c8ebf;" vertex="1" parent="1">
          <mxGeometry x="-344" y="644" width="120" height="60" as="geometry" />
        </mxCell>
        <mxCell id="irvj4OvExT9gKd955zVb-24" value="" style="shape=waypoint;sketch=0;size=6;pointerEvents=1;points=[];fillColor=default;resizable=0;rotatable=0;perimeter=centerPerimeter;snapToPoint=1;fontSize=16;rounded=0;" vertex="1" parent="1">
          <mxGeometry x="-131" y="785" width="20" height="20" as="geometry" />
        </mxCell>
        <mxCell id="irvj4OvExT9gKd955zVb-25" value="False" style="text;strokeColor=none;fillColor=none;html=1;align=center;verticalAlign=middle;whiteSpace=wrap;rounded=0;fontSize=11;" vertex="1" parent="1">
          <mxGeometry x="-122" y="147" width="60" height="30" as="geometry" />
        </mxCell>
        <mxCell id="irvj4OvExT9gKd955zVb-26" value="True" style="text;strokeColor=none;fillColor=none;html=1;align=center;verticalAlign=middle;whiteSpace=wrap;rounded=0;fontSize=16;" vertex="1" parent="1">
          <mxGeometry x="-184.5" y="222" width="60" height="30" as="geometry" />
        </mxCell>
        <mxCell id="irvj4OvExT9gKd955zVb-27" value="True" style="text;strokeColor=none;fillColor=none;html=1;align=center;verticalAlign=middle;whiteSpace=wrap;rounded=0;fontSize=11;" vertex="1" parent="1">
          <mxGeometry x="-182" y="427" width="60" height="30" as="geometry" />
        </mxCell>
        <mxCell id="irvj4OvExT9gKd955zVb-28" value="False" style="text;strokeColor=none;fillColor=none;html=1;align=center;verticalAlign=middle;whiteSpace=wrap;rounded=0;fontSize=11;" vertex="1" parent="1">
          <mxGeometry x="-142" y="350" width="60" height="30" as="geometry" />
        </mxCell>
        <mxCell id="irvj4OvExT9gKd955zVb-29" value="False" style="text;strokeColor=none;fillColor=none;html=1;align=center;verticalAlign=middle;whiteSpace=wrap;rounded=0;fontSize=11;" vertex="1" parent="1">
          <mxGeometry x="-356" y="598" width="60" height="30" as="geometry" />
        </mxCell>
        <mxCell id="irvj4OvExT9gKd955zVb-30" value="True" style="text;strokeColor=none;fillColor=none;html=1;align=center;verticalAlign=middle;whiteSpace=wrap;rounded=0;fontSize=11;" vertex="1" parent="1">
          <mxGeometry x="-52" y="591" width="60" height="30" as="geometry" />
        </mxCell>
        <mxCell id="irvj4OvExT9gKd955zVb-31" value="&lt;font style=&quot;font-size: 11px;&quot; face=&quot;calribri&quot;&gt;Return value&lt;/font&gt;" style="rounded=0;whiteSpace=wrap;html=1;fontSize=16;fillColor=#d5e8d4;strokeColor=#6c8ebf;" vertex="1" parent="1">
          <mxGeometry x="-244.5" y="882" width="120" height="60" as="geometry" />
        </mxCell>
      </root>
    </mxGraphModel>
  </diagram>
</mxfile>
